# xmcd
#
# Track frame offsets:
#       150
#       13822
#       32780
#       46715
#       65685
#       82870
#       97070
#       114787
#       129492
#       144637
#       160580
#       175542
#       192657
#       203465
#       220805
#       243560
#       261360
#       279165
#       299082
#       317802
#       338977
#
# Disc length: 4721 seconds
#
# Revision: 0
# Processed by: cddbd v1.5PL3 Copyright (c) Steve Scherf et al.
# Submitted via: CD-DA_X-Tractor v0.23
#
DISCID=33126f15
DTITLE=John Lennon - Forever Gold I
DYEAR=1900
DGENRE=
TTITLE0=Imagine
TTITLE1=Mind Games
TTITLE2=Love
TTITLE3=Jealous Guy
TTITLE4=Bony Moronie
TTITLE5=One Day
TTITLE6=Starting Over
TTITLE7=God
TTITLE8=Power To The People
TTITLE9=Woman
TTITLE10=Nobody Told Me
TTITLE11=Old Dirt Road
TTITLE12=It's So Hard
TTITLE13=I'm Stepping Out
TTITLE14=Nobody Loves You
TTITLE15=Mother
TTITLE16=Beatiful Boy
TTITLE17=Just Because
TTITLE18=Steel And Glass
TTITLE19=No. 9 Dream
TTITLE20=Happy Xmas
EXTD=
EXTT0=
EXTT1=
EXTT2=
EXTT3=
EXTT4=
EXTT5=
EXTT6=
EXTT7=
EXTT8=
EXTT9=
EXTT10=
EXTT11=
EXTT12=
EXTT13=
EXTT14=
EXTT15=
EXTT16=
EXTT17=
EXTT18=
EXTT19=
EXTT20=
PLAYORDER=
